<svg width="43" height="44" viewBox="0 0 43 44" fill="none" xmlns="http://www.w3.org/2000/svg">
<path d="M15.9429 31.8039C15.7061 29.9505 15.1913 27.9822 14.461 25.9905C11.8357 26.6392 9.13569 27.065 7.23474 27.3167C8.98608 28.8174 10.6141 31.566 11.3305 35.576C12.2867 35.2662 13.9274 34.7908 16.039 34.3919C16.0847 33.5663 16.0588 32.7033 15.9429 31.8039Z" fill="#007BDA"/>
<path d="M15.9429 31.8039C15.7061 29.9505 15.1913 27.9822 14.461 25.9905C11.8357 26.6392 9.13569 27.065 7.23474 27.3167C8.98608 28.8174 10.6141 31.566 11.3305 35.576C12.2867 35.2662 13.9274 34.7908 16.039 34.3919C16.0847 33.5663 16.0588 32.7033 15.9429 31.8039Z" fill="#009447"/>
<path d="M13.2336 41.3016C14.4986 39.9626 15.4285 38.1821 15.8355 36.0752C12.8894 36.6729 11.0048 37.3884 10.976 37.3997L10.0263 37.767L9.88978 36.758C9.06693 30.6694 6.11624 27.9102 4.44962 27.6014H4.44502C3.94018 27.5085 3.52928 27.611 3.22617 27.907C2.65893 28.4629 2.4767 29.658 2.727 31.1856C3.83453 37.9375 9.63381 44.1101 14.662 43.8871L14.667 43.8868C15.6862 43.8481 16.6346 43.5358 17.4872 42.9586C18.0037 42.6101 18.4416 42.1936 18.8121 41.7281C16.5623 41.8497 14.5805 41.694 13.2336 41.3016Z" fill="#00488E"/>
<path d="M13.2336 41.3016C14.4986 39.9626 15.4285 38.1821 15.8355 36.0752C12.8894 36.6729 11.0048 37.3884 10.976 37.3997L10.0263 37.767L9.88978 36.758C9.06693 30.6694 6.11624 27.9102 4.44962 27.6014H4.44502C3.94018 27.5085 3.52928 27.611 3.22617 27.907C2.65893 28.4629 2.4767 29.658 2.727 31.1856C3.83453 37.9375 9.63381 44.1101 14.662 43.8871L14.667 43.8868C15.6862 43.8481 16.6346 43.5358 17.4872 42.9586C18.0037 42.6101 18.4416 42.1936 18.8121 41.7281C16.5623 41.8497 14.5805 41.694 13.2336 41.3016Z" fill="#009447"/>
<path d="M14.4613 25.9905C15.1917 27.9822 15.7064 29.9505 15.9432 31.8039C16.0588 32.7033 16.0851 33.5662 16.0393 34.3916C16.0074 34.9726 15.9401 35.5349 15.8358 36.0749C15.4288 38.1818 14.4993 39.9622 13.234 41.3012C14.5805 41.694 16.5626 41.8493 18.8124 41.7281C20.4042 39.7293 20.7509 36.8286 20.7233 34.5387C20.6878 31.3101 19.9132 27.6085 18.4834 23.8335C16.19 17.763 12.6054 12.5328 8.64752 9.4828L7.53787 8.62769L8.83648 8.10194C8.94355 8.05869 18.2108 4.35428 28.8723 3.49491C27.8347 2.19133 26.7339 1.01502 25.5749 0.0337055C25.5455 0.00853441 25.5069 -0.00316432 25.4682 0.000735435C12.2325 1.30183 0 7.71764 0 7.71764C4.88213 10.4943 9.30942 15.6277 12.2739 21.1416C12.8681 22.2439 13.396 23.3613 13.8657 24.4781C14.0781 24.9833 14.2766 25.4874 14.4613 25.9905Z" fill="#009447"/>
<path d="M14.4613 25.9905C15.1917 27.9822 15.7064 29.9505 15.9432 31.8039C16.0588 32.7033 16.0851 33.5662 16.0393 34.3916C16.0074 34.9726 15.9401 35.5349 15.8358 36.0749C15.4288 38.1818 14.4993 39.9622 13.234 41.3012C14.5805 41.694 16.5626 41.8493 18.8124 41.7281C20.4042 39.7293 20.7509 36.8286 20.7233 34.5387C20.6878 31.3101 19.9132 27.6085 18.4834 23.8335C16.19 17.763 12.6054 12.5328 8.64752 9.4828L7.53787 8.62769L8.83648 8.10194C8.94355 8.05869 18.2108 4.35428 28.8723 3.49491C27.8347 2.19133 26.7339 1.01502 25.5749 0.0337055C25.5455 0.00853441 25.5069 -0.00316432 25.4682 0.000735435C12.2325 1.30183 0 7.71764 0 7.71764C4.88213 10.4943 9.30942 15.6277 12.2739 21.1416C12.8681 22.2439 13.396 23.3613 13.8657 24.4781C14.0781 24.9833 14.2766 25.4874 14.4613 25.9905Z" fill="#009447"/>
<path d="M12.0538 9.43432C25.8093 24.8915 24.8166 39.2141 20.2078 44C51.973 42.7236 42.5427 17.2336 34.7432 5.00248C26.2347 4.57705 16.0126 7.7208 12.0538 9.43432Z" fill="#009447"/>
<path d="M32.0843 16.6626L26.412 18.2579C37.4731 34.4242 27.4755 41.8928 21.0941 43.6063C40.522 40.3447 36.5159 24.2848 32.0843 16.6626Z" fill="white"/>
<circle cx="26.9438" cy="12.4083" r="3.54523" fill="#F06323"/>
</svg>
