<svg width="700" height="727" viewBox="0 0 700 727" fill="none" xmlns="http://www.w3.org/2000/svg">
<path d="M263.36 525.367C259.448 494.75 250.944 462.236 238.88 429.335C195.514 440.052 150.912 447.086 119.51 451.244C148.441 476.033 175.333 521.438 187.169 587.679C202.963 582.56 230.066 574.707 264.947 568.119C265.702 554.479 265.275 540.225 263.36 525.367Z" fill="#007BDA"/>
<path d="M263.36 525.367C259.448 494.75 250.944 462.236 238.88 429.335C195.514 440.052 150.912 447.086 119.51 451.244C148.441 476.033 175.333 521.438 187.169 587.679C202.963 582.56 230.066 574.707 264.947 568.119C265.702 554.479 265.275 540.225 263.36 525.367Z" fill="#009447"/>
<path d="M218.606 682.259C239.501 660.139 254.862 630.729 261.585 595.925C212.919 605.798 181.787 617.616 181.313 617.804L165.623 623.871L163.369 607.204C149.776 506.627 101.034 461.047 73.503 455.946H73.4269C65.0875 454.412 58.3 456.104 53.2928 460.994C43.9227 470.177 40.9125 489.919 45.047 515.154C63.3423 626.688 159.14 728.653 242.201 724.969L242.283 724.963C259.12 724.325 274.786 719.165 288.87 709.631C297.403 703.875 304.635 696.993 310.755 689.304C273.591 691.313 240.854 688.742 218.606 682.259Z" fill="#00488E"/>
<path d="M218.606 682.259C239.501 660.139 254.862 630.729 261.585 595.925C212.919 605.798 181.787 617.616 181.313 617.804L165.623 623.871L163.369 607.204C149.776 506.627 101.034 461.047 73.503 455.946H73.4269C65.0875 454.412 58.3 456.104 53.2928 460.994C43.9227 470.177 40.9125 489.919 45.047 515.154C63.3423 626.688 159.14 728.653 242.201 724.969L242.283 724.963C259.12 724.325 274.786 719.165 288.87 709.631C297.403 703.875 304.635 696.993 310.755 689.304C273.591 691.313 240.854 688.742 218.606 682.259Z" fill="#009447"/>
<path d="M238.886 429.335C250.95 462.236 259.454 494.75 263.366 525.367C265.275 540.225 265.708 554.479 264.953 568.113C264.426 577.711 263.313 586.999 261.591 595.919C254.868 630.723 239.513 660.133 218.612 682.253C240.854 688.742 273.597 691.307 310.761 689.304C337.056 656.286 342.784 608.369 342.327 570.543C341.741 517.209 328.945 456.063 305.326 393.705C267.442 293.427 208.228 207.028 142.848 156.646L124.518 142.52L145.969 133.836C147.738 133.121 300.823 71.9281 476.941 57.7323C459.799 36.1985 441.615 16.7671 422.471 0.55678C421.985 0.140979 421.346 -0.0522712 420.708 0.0121486C202.067 21.5049 0 127.487 0 127.487C80.6477 173.354 153.782 258.154 202.753 349.238C212.568 367.445 221.288 385.904 229.048 404.352C232.555 412.697 235.835 421.025 238.886 429.335Z" fill="#009447"/>
<path d="M238.886 429.335C250.95 462.236 259.454 494.75 263.366 525.367C265.275 540.225 265.708 554.479 264.953 568.113C264.426 577.711 263.313 586.999 261.591 595.919C254.868 630.723 239.513 660.133 218.612 682.253C240.854 688.742 273.597 691.307 310.761 689.304C337.056 656.286 342.784 608.369 342.327 570.543C341.741 517.209 328.945 456.063 305.326 393.705C267.442 293.427 208.228 207.028 142.848 156.646L124.518 142.52L145.969 133.836C147.738 133.121 300.823 71.9281 476.941 57.7323C459.799 36.1985 441.615 16.7671 422.471 0.55678C421.985 0.140979 421.346 -0.0522712 420.708 0.0121486C202.067 21.5049 0 127.487 0 127.487C80.6477 173.354 153.782 258.154 202.753 349.238C212.568 367.445 221.288 385.904 229.048 404.352C232.555 412.697 235.835 421.025 238.886 429.335Z" fill="#009447"/>
<path d="M199.116 155.845C426.342 411.182 409.944 647.775 333.812 726.834C858.54 705.749 702.761 284.681 573.922 82.6357C433.37 75.6081 264.512 127.539 199.116 155.845Z" fill="#009447"/>
<path d="M529.999 275.248L436.298 301.602C619.016 568.651 453.867 692.025 348.453 720.331C669.38 666.452 603.204 401.16 529.999 275.248Z" fill="white"/>
<circle cx="445.082" cy="204.972" r="58.5634" fill="white"/>
</svg>
