<svg width="14" height="14" viewBox="0 0 14 14" fill="none" xmlns="http://www.w3.org/2000/svg">
<path fill-rule="evenodd" clip-rule="evenodd" d="M8.25448 13.8359C8.95062 12.8064 9.01477 11.6945 8.44692 10.5002C8.28901 11.1409 8.00015 11.5298 7.58032 11.6669C7.97018 10.5535 7.64441 9.35058 6.60297 8.05818C6.58049 9.39299 6.25972 10.3653 5.64063 10.9752C4.78778 11.8146 4.79782 12.7619 5.67071 13.8171C2.04717 11.8888 1.53595 9.30248 4.137 6.05834C4.29833 6.84206 4.68926 7.32323 5.30985 7.50184C4.6334 4.63127 5.34513 2.18534 7.44502 0.164062C7.45792 4.64972 8.83345 5.04842 10.5726 7.05072C12.4503 9.45358 11.3469 12.2265 8.25448 13.8359Z" fill="url(#paint0_linear_1793_1934)"/>
<defs>
<linearGradient id="paint0_linear_1793_1934" x1="11.1973" y1="3.91639" x2="3.19785" y2="11.9159" gradientUnits="userSpaceOnUse">
<stop stop-color="#EF3E3D"/>
<stop offset="1" stop-color="#FFC828"/>
</linearGradient>
</defs>
</svg>
