<svg width="230" height="55" viewBox="0 0 230 55" fill="none" xmlns="http://www.w3.org/2000/svg">
<path d="M19.7889 39.6641C19.4951 37.3645 18.8564 34.9223 17.9503 32.4512C14.6931 33.2561 11.3431 33.7844 8.9845 34.0967C11.1574 35.9587 13.1773 39.3689 14.0663 44.3442C15.2526 43.9598 17.2883 43.3699 19.9081 42.8751C19.9649 41.8507 19.9327 40.78 19.7889 39.6641Z" fill="#007BDA"/>
<path d="M19.7889 39.6641C19.4951 37.3645 18.8564 34.9223 17.9503 32.4512C14.6931 33.2561 11.3431 33.7844 8.9845 34.0967C11.1574 35.9587 13.1773 39.3689 14.0663 44.3442C15.2526 43.9598 17.2883 43.3699 19.9081 42.8751C19.9649 41.8507 19.9327 40.78 19.7889 39.6641Z" fill="#009447"/>
<path d="M16.4275 51.448C17.9969 49.7866 19.1507 47.5776 19.6556 44.9635C16.0004 45.7051 13.662 46.5927 13.6264 46.6068L12.448 47.0625L12.2787 45.8107C11.2577 38.2564 7.59673 34.8329 5.52892 34.4498H5.5232C4.89683 34.3346 4.38703 34.4617 4.01095 34.829C3.30716 35.5187 3.08107 37.0015 3.39162 38.8969C4.76575 47.2741 11.9611 54.9326 18.1997 54.6559L18.2058 54.6555C19.4705 54.6075 20.6471 54.22 21.705 53.5039C22.3459 53.0715 22.8891 52.5547 23.3487 51.9771C20.5574 52.128 18.0985 51.9349 16.4275 51.448Z" fill="#00488E"/>
<path d="M16.4275 51.448C17.9969 49.7866 19.1507 47.5776 19.6556 44.9635C16.0004 45.7051 13.662 46.5927 13.6264 46.6068L12.448 47.0625L12.2787 45.8107C11.2577 38.2564 7.59673 34.8329 5.52892 34.4498H5.5232C4.89683 34.3346 4.38703 34.4617 4.01095 34.829C3.30716 35.5187 3.08107 37.0015 3.39162 38.8969C4.76575 47.2741 11.9611 54.9326 18.1997 54.6559L18.2058 54.6555C19.4705 54.6075 20.6471 54.22 21.705 53.5039C22.3459 53.0715 22.8891 52.5547 23.3487 51.9771C20.5574 52.128 18.0985 51.9349 16.4275 51.448Z" fill="#009447"/>
<path d="M17.9507 32.4511C18.8568 34.9223 19.4955 37.3644 19.7894 39.664C19.9328 40.7799 19.9653 41.8506 19.9086 42.8746C19.869 43.5955 19.7854 44.2931 19.6561 44.9631C19.1511 47.5772 17.9978 49.7862 16.4279 51.4476C18.0985 51.9349 20.5578 52.1276 23.3492 51.9771C25.3242 49.4972 25.7544 45.8982 25.7201 43.0571C25.6761 39.0513 24.715 34.4586 22.941 29.775C20.0955 22.2431 15.648 15.7538 10.7374 11.9696L9.36059 10.9087L10.9718 10.2564C11.1047 10.2027 22.6027 5.60656 35.8308 4.54033C34.5433 2.92294 33.1775 1.46347 31.7396 0.245921C31.7031 0.21469 31.6552 0.200176 31.6072 0.205014C15.1853 1.81932 0.00817871 9.77956 0.00817871 9.77956C6.06556 13.2246 11.5586 19.5938 15.2368 26.4351C15.974 27.8026 16.6289 29.1891 17.2117 30.5746C17.4752 31.2014 17.7216 31.8269 17.9507 32.4511Z" fill="#009447"/>
<path d="M17.9507 32.4511C18.8568 34.9223 19.4955 37.3644 19.7894 39.664C19.9328 40.7799 19.9653 41.8506 19.9086 42.8746C19.869 43.5955 19.7854 44.2931 19.6561 44.9631C19.1511 47.5772 17.9978 49.7862 16.4279 51.4476C18.0985 51.9349 20.5578 52.1276 23.3492 51.9771C25.3242 49.4972 25.7544 45.8982 25.7201 43.0571C25.6761 39.0513 24.715 34.4586 22.941 29.775C20.0955 22.2431 15.648 15.7538 10.7374 11.9696L9.36059 10.9087L10.9718 10.2564C11.1047 10.2027 22.6027 5.60656 35.8308 4.54033C34.5433 2.92294 33.1775 1.46347 31.7396 0.245921C31.7031 0.21469 31.6552 0.200176 31.6072 0.205014C15.1853 1.81932 0.00817871 9.77956 0.00817871 9.77956C6.06556 13.2246 11.5586 19.5938 15.2368 26.4351C15.974 27.8026 16.6289 29.1891 17.2117 30.5746C17.4752 31.2014 17.7216 31.8269 17.9507 32.4511Z" fill="#009447"/>
<path d="M14.9636 11.9096C32.0303 31.0877 30.7987 48.858 25.0805 54.7961C64.4924 53.2124 52.792 21.5864 43.1149 6.41089C32.5582 5.88306 19.8754 9.78357 14.9636 11.9096Z" fill="#009447"/>
<path d="M39.8159 20.8777L32.7781 22.8571C46.5019 42.9149 34.0977 52.1814 26.1801 54.3074C50.2847 50.2607 45.3143 30.3348 39.8159 20.8777Z" fill="white"/>
<circle cx="33.4379" cy="15.5993" r="4.39865" fill="#F06323"/>
<path d="M69.5775 8.37292V27.3982H67.0936V8.37292H69.5775ZM88.7691 27.3982H86.2852L76.2949 12.2489V27.3982H73.811V8.34563H76.2949L86.2852 23.4676V8.34563H88.7691V27.3982ZM104.713 8.37292V10.3928H99.5272V27.3982H97.0432V10.3928H91.8297V8.37292H104.713ZM110.255 10.3928V16.7528H117.188V18.8H110.255V25.351H118.007V27.3982H107.771V8.34563H118.007V10.3928H110.255ZM131.783 27.3982L127.252 19.6188H124.249V27.3982H121.765V8.37292H127.907C129.345 8.37292 130.555 8.61859 131.537 9.10991C132.538 9.60124 133.284 10.2654 133.776 11.1025C134.267 11.9396 134.513 12.895 134.513 13.9686C134.513 15.2788 134.131 16.4343 133.366 17.4352C132.62 18.436 131.492 19.1002 129.982 19.4278L134.758 27.3982H131.783ZM124.249 17.6262H127.907C129.254 17.6262 130.264 17.2987 130.937 16.6436C131.61 15.9703 131.947 15.0786 131.947 13.9686C131.947 12.8404 131.61 11.9669 130.937 11.3482C130.282 10.7295 129.272 10.4201 127.907 10.4201H124.249V17.6262ZM149.618 23.1673H141.32L139.792 27.3982H137.171L144.05 8.48211H146.916L153.767 27.3982H151.147L149.618 23.1673ZM148.908 21.1474L145.469 11.5393L142.03 21.1474H148.908ZM155.837 17.8719C155.837 16.0158 156.256 14.3507 157.093 12.8768C157.93 11.3846 159.067 10.2199 160.505 9.38287C161.96 8.5458 163.571 8.12726 165.336 8.12726C167.41 8.12726 169.221 8.62768 170.768 9.62854C172.315 10.6294 173.443 12.0488 174.153 13.8867H171.177C170.65 12.7403 169.885 11.8577 168.884 11.239C167.902 10.6203 166.719 10.3109 165.336 10.3109C164.008 10.3109 162.816 10.6203 161.76 11.239C160.705 11.8577 159.877 12.7403 159.276 13.8867C158.676 15.0149 158.376 16.3433 158.376 17.8719C158.376 19.3823 158.676 20.7107 159.276 21.8571C159.877 22.9853 160.705 23.8588 161.76 24.4775C162.816 25.0962 164.008 25.4056 165.336 25.4056C166.719 25.4056 167.902 25.1053 168.884 24.5048C169.885 23.8861 170.65 23.0035 171.177 21.8571H174.153C173.443 23.6768 172.315 25.0871 170.768 26.088C169.221 27.0706 167.41 27.562 165.336 27.562C163.571 27.562 161.96 27.1525 160.505 26.3337C159.067 25.4966 157.93 24.341 157.093 22.8671C156.256 21.3931 155.837 19.728 155.837 17.8719ZM189.56 8.37292V10.3928H184.374V27.3982H181.89V10.3928H176.676V8.37292H189.56ZM195.102 8.37292V27.3982H192.618V8.37292H195.102ZM215.057 8.37292L207.879 27.3982H205.013L197.834 8.37292H200.481L206.459 24.7778L212.437 8.37292H215.057ZM220.265 10.3928V16.7528H227.198V18.8H220.265V25.351H228.017V27.3982H217.781V8.34563H228.017V10.3928H220.265Z" fill="#009447"/>
<path d="M68.8815 33.6114V46.6018H66.276V33.6114H68.8815ZM82.5664 46.6018H79.9609L74.0613 37.6872V46.6018H71.4558V33.5928H74.0613L79.9609 42.526V33.5928H82.5664V46.6018ZM96.8103 33.6114L92.0459 46.6018H88.8821L84.1177 33.6114H86.9093L90.4826 43.9405L94.0373 33.6114H96.8103ZM104.402 46.7321C103.186 46.7321 102.07 46.4467 101.052 45.876C100.035 45.3052 99.2285 44.5174 98.633 43.5124C98.0375 42.495 97.7397 41.3473 97.7397 40.0694C97.7397 38.8039 98.0375 37.6686 98.633 36.6636C99.2285 35.6462 100.035 34.8521 101.052 34.2814C102.07 33.7107 103.186 33.4253 104.402 33.4253C105.631 33.4253 106.747 33.7107 107.752 34.2814C108.77 34.8521 109.57 35.6462 110.153 36.6636C110.749 37.6686 111.046 38.8039 111.046 40.0694C111.046 41.3473 110.749 42.495 110.153 43.5124C109.57 44.5174 108.77 45.3052 107.752 45.876C106.735 46.4467 105.618 46.7321 104.402 46.7321ZM104.402 44.4057C105.184 44.4057 105.873 44.232 106.468 43.8846C107.064 43.5248 107.529 43.0161 107.864 42.3585C108.199 41.7009 108.366 40.9379 108.366 40.0694C108.366 39.2009 108.199 38.444 107.864 37.7989C107.529 37.1413 107.064 36.6388 106.468 36.2914C105.873 35.944 105.184 35.7703 104.402 35.7703C103.621 35.7703 102.926 35.944 102.318 36.2914C101.722 36.6388 101.257 37.1413 100.922 37.7989C100.587 38.444 100.42 39.2009 100.42 40.0694C100.42 40.9379 100.587 41.7009 100.922 42.3585C101.257 43.0161 101.722 43.5248 102.318 43.8846C102.926 44.232 103.621 44.4057 104.402 44.4057ZM115.59 33.6114V46.6018H112.985V33.6114H115.59ZM117.532 40.088C117.532 38.8101 117.817 37.6686 118.388 36.6636C118.971 35.6462 119.759 34.8583 120.752 34.3C121.757 33.7293 122.879 33.4439 124.12 33.4439C125.572 33.4439 126.844 33.8161 127.935 34.5606C129.027 35.305 129.79 36.3348 130.225 37.65H127.228C126.93 37.0296 126.509 36.5643 125.963 36.2542C125.429 35.944 124.809 35.7889 124.102 35.7889C123.345 35.7889 122.669 35.9688 122.073 36.3286C121.49 36.676 121.031 37.1723 120.696 37.8175C120.373 38.4627 120.212 39.2195 120.212 40.088C120.212 40.9441 120.373 41.7009 120.696 42.3585C121.031 43.0037 121.49 43.5062 122.073 43.866C122.669 44.2134 123.345 44.3871 124.102 44.3871C124.809 44.3871 125.429 44.232 125.963 43.9218C126.509 43.5993 126.93 43.1278 127.228 42.5074H130.225C129.79 43.835 129.027 44.871 127.935 45.6154C126.856 46.3475 125.584 46.7135 124.12 46.7135C122.879 46.7135 121.757 46.4343 120.752 45.876C119.759 45.3052 118.971 44.5174 118.388 43.5124C117.817 42.5074 117.532 41.3659 117.532 40.088ZM135.055 35.7144V38.9714H139.429V41.0372H135.055V44.4802H139.987V46.6018H132.45V33.5928H139.987V35.7144H135.055Z" fill="#009447"/>
</svg>
