<svg width="186" height="44" viewBox="0 0 186 44" fill="none" xmlns="http://www.w3.org/2000/svg">
<path d="M15.9429 31.8039C15.7061 29.9505 15.1913 27.9822 14.461 25.9905C11.8357 26.6392 9.13569 27.065 7.23474 27.3167C8.98608 28.8174 10.6141 31.566 11.3305 35.576C12.2867 35.2662 13.9274 34.7908 16.039 34.3919C16.0847 33.5663 16.0588 32.7033 15.9429 31.8039Z" fill="#007BDA"/>
<path d="M15.9429 31.8039C15.7061 29.9505 15.1913 27.9822 14.461 25.9905C11.8357 26.6392 9.13569 27.065 7.23474 27.3167C8.98608 28.8174 10.6141 31.566 11.3305 35.576C12.2867 35.2662 13.9274 34.7908 16.039 34.3919C16.0847 33.5663 16.0588 32.7033 15.9429 31.8039Z" fill="#009447"/>
<path d="M13.2336 41.3016C14.4986 39.9626 15.4285 38.1821 15.8355 36.0752C12.8894 36.6729 11.0048 37.3884 10.976 37.3997L10.0263 37.767L9.88978 36.758C9.06693 30.6694 6.11624 27.9102 4.44962 27.6014H4.44502C3.94018 27.5085 3.52928 27.611 3.22617 27.907C2.65893 28.4629 2.4767 29.658 2.727 31.1856C3.83453 37.9375 9.63381 44.1101 14.662 43.8871L14.667 43.8868C15.6862 43.8481 16.6346 43.5358 17.4872 42.9586C18.0037 42.6101 18.4416 42.1936 18.8121 41.7281C16.5623 41.8497 14.5805 41.694 13.2336 41.3016Z" fill="#00488E"/>
<path d="M13.2336 41.3016C14.4986 39.9626 15.4285 38.1821 15.8355 36.0752C12.8894 36.6729 11.0048 37.3884 10.976 37.3997L10.0263 37.767L9.88978 36.758C9.06693 30.6694 6.11624 27.9102 4.44962 27.6014H4.44502C3.94018 27.5085 3.52928 27.611 3.22617 27.907C2.65893 28.4629 2.4767 29.658 2.727 31.1856C3.83453 37.9375 9.63381 44.1101 14.662 43.8871L14.667 43.8868C15.6862 43.8481 16.6346 43.5358 17.4872 42.9586C18.0037 42.6101 18.4416 42.1936 18.8121 41.7281C16.5623 41.8497 14.5805 41.694 13.2336 41.3016Z" fill="#009447"/>
<path d="M14.4613 25.9905C15.1917 27.9822 15.7064 29.9505 15.9432 31.8039C16.0588 32.7033 16.0851 33.5662 16.0393 34.3916C16.0074 34.9726 15.9401 35.5349 15.8358 36.0749C15.4288 38.1818 14.4993 39.9622 13.234 41.3012C14.5805 41.694 16.5626 41.8493 18.8124 41.7281C20.4042 39.7293 20.7509 36.8286 20.7233 34.5387C20.6878 31.3101 19.9132 27.6085 18.4834 23.8335C16.19 17.763 12.6054 12.5328 8.64752 9.4828L7.53787 8.62769L8.83648 8.10194C8.94355 8.05869 18.2108 4.35428 28.8723 3.49491C27.8347 2.19133 26.7339 1.01502 25.5749 0.0337055C25.5455 0.00853441 25.5069 -0.00316432 25.4682 0.000735435C12.2325 1.30183 0 7.71764 0 7.71764C4.88213 10.4943 9.30942 15.6277 12.2739 21.1416C12.8681 22.2439 13.396 23.3613 13.8657 24.4781C14.0781 24.9833 14.2766 25.4874 14.4613 25.9905Z" fill="#009447"/>
<path d="M14.4613 25.9905C15.1917 27.9822 15.7064 29.9505 15.9432 31.8039C16.0588 32.7033 16.0851 33.5662 16.0393 34.3916C16.0074 34.9726 15.9401 35.5349 15.8358 36.0749C15.4288 38.1818 14.4993 39.9622 13.234 41.3012C14.5805 41.694 16.5626 41.8493 18.8124 41.7281C20.4042 39.7293 20.7509 36.8286 20.7233 34.5387C20.6878 31.3101 19.9132 27.6085 18.4834 23.8335C16.19 17.763 12.6054 12.5328 8.64752 9.4828L7.53787 8.62769L8.83648 8.10194C8.94355 8.05869 18.2108 4.35428 28.8723 3.49491C27.8347 2.19133 26.7339 1.01502 25.5749 0.0337055C25.5455 0.00853441 25.5069 -0.00316432 25.4682 0.000735435C12.2325 1.30183 0 7.71764 0 7.71764C4.88213 10.4943 9.30942 15.6277 12.2739 21.1416C12.8681 22.2439 13.396 23.3613 13.8657 24.4781C14.0781 24.9833 14.2766 25.4874 14.4613 25.9905Z" fill="#009447"/>
<path d="M12.0538 9.43432C25.8093 24.8915 24.8166 39.2141 20.2078 44C51.973 42.7236 42.5427 17.2336 34.7432 5.00248C26.2347 4.57705 16.0126 7.7208 12.0538 9.43432Z" fill="#009447"/>
<path d="M32.0843 16.6626L26.412 18.2579C37.4731 34.4242 27.4755 41.8928 21.0941 43.6063C40.522 40.3447 36.5159 24.2848 32.0843 16.6626Z" fill="white"/>
<circle cx="26.9438" cy="12.4083" r="3.54523" fill="#F06323"/>
<path d="M56.0716 6.166V21.5H54.0696V6.166H56.0716ZM71.5396 21.5H69.5376L61.4856 9.29V21.5H59.4836V6.144H61.4856L69.5376 18.332V6.144H71.5396V21.5ZM84.3904 6.166V7.794H80.2104V21.5H78.2084V7.794H74.0064V6.166H84.3904ZM88.8567 7.794V12.92H94.4447V14.57H88.8567V19.85H95.1047V21.5H86.8547V6.144H95.1047V7.794H88.8567ZM106.208 21.5L102.556 15.23H100.136V21.5H98.134V6.166H103.084C104.243 6.166 105.218 6.364 106.01 6.76C106.817 7.156 107.418 7.69133 107.814 8.366C108.21 9.04067 108.408 9.81067 108.408 10.676C108.408 11.732 108.1 12.6633 107.484 13.47C106.883 14.2767 105.973 14.812 104.756 15.076L108.606 21.5H106.208ZM100.136 13.624H103.084C104.169 13.624 104.983 13.36 105.526 12.832C106.069 12.2893 106.34 11.5707 106.34 10.676C106.34 9.76667 106.069 9.06267 105.526 8.564C104.998 8.06533 104.184 7.816 103.084 7.816H100.136V13.624ZM120.583 18.09H113.895L112.663 21.5H110.551L116.095 6.254H118.405L123.927 21.5H121.815L120.583 18.09ZM120.011 16.462L117.239 8.718L114.467 16.462H120.011ZM125.595 13.822C125.595 12.326 125.932 10.984 126.607 9.796C127.282 8.59333 128.198 7.65467 129.357 6.98C130.53 6.30533 131.828 5.968 133.251 5.968C134.923 5.968 136.382 6.37133 137.629 7.178C138.876 7.98467 139.785 9.12867 140.357 10.61H137.959C137.534 9.686 136.918 8.97467 136.111 8.476C135.319 7.97733 134.366 7.728 133.251 7.728C132.18 7.728 131.22 7.97733 130.369 8.476C129.518 8.97467 128.851 9.686 128.367 10.61C127.883 11.5193 127.641 12.59 127.641 13.822C127.641 15.0393 127.883 16.11 128.367 17.034C128.851 17.9433 129.518 18.6473 130.369 19.146C131.22 19.6447 132.18 19.894 133.251 19.894C134.366 19.894 135.319 19.652 136.111 19.168C136.918 18.6693 137.534 17.958 137.959 17.034H140.357C139.785 18.5007 138.876 19.6373 137.629 20.444C136.382 21.236 134.923 21.632 133.251 21.632C131.828 21.632 130.53 21.302 129.357 20.642C128.198 19.9673 127.282 19.036 126.607 17.848C125.932 16.66 125.595 15.318 125.595 13.822ZM152.775 6.166V7.794H148.595V21.5H146.593V7.794H142.391V6.166H152.775ZM157.242 6.166V21.5H155.24V6.166H157.242ZM173.326 6.166L167.54 21.5H165.23L159.444 6.166H161.578L166.396 19.388L171.214 6.166H173.326ZM177.523 7.794V12.92H183.111V14.57H177.523V19.85H183.771V21.5H175.521V6.144H183.771V7.794H177.523Z" fill="white"/>
<path d="M55.5106 27.03V37.5H53.4106V27.03H55.5106ZM66.5404 37.5H64.4404L59.6854 30.315V37.5H57.5854V27.015H59.6854L64.4404 34.215V27.015H66.5404V37.5ZM78.0207 27.03L74.1807 37.5H71.6307L67.7907 27.03H70.0407L72.9207 35.355L75.7857 27.03H78.0207ZM84.1397 37.605C83.1597 37.605 82.2597 37.375 81.4397 36.915C80.6197 36.455 79.9697 35.82 79.4897 35.01C79.0097 34.19 78.7697 33.265 78.7697 32.235C78.7697 31.215 79.0097 30.3 79.4897 29.49C79.9697 28.67 80.6197 28.03 81.4397 27.57C82.2597 27.11 83.1597 26.88 84.1397 26.88C85.1297 26.88 86.0297 27.11 86.8397 27.57C87.6597 28.03 88.3047 28.67 88.7747 29.49C89.2547 30.3 89.4947 31.215 89.4947 32.235C89.4947 33.265 89.2547 34.19 88.7747 35.01C88.3047 35.82 87.6597 36.455 86.8397 36.915C86.0197 37.375 85.1197 37.605 84.1397 37.605ZM84.1397 35.73C84.7697 35.73 85.3247 35.59 85.8047 35.31C86.2847 35.02 86.6597 34.61 86.9297 34.08C87.1997 33.55 87.3347 32.935 87.3347 32.235C87.3347 31.535 87.1997 30.925 86.9297 30.405C86.6597 29.875 86.2847 29.47 85.8047 29.19C85.3247 28.91 84.7697 28.77 84.1397 28.77C83.5097 28.77 82.9497 28.91 82.4597 29.19C81.9797 29.47 81.6047 29.875 81.3347 30.405C81.0647 30.925 80.9297 31.535 80.9297 32.235C80.9297 32.935 81.0647 33.55 81.3347 34.08C81.6047 34.61 81.9797 35.02 82.4597 35.31C82.9497 35.59 83.5097 35.73 84.1397 35.73ZM93.1571 27.03V37.5H91.0571V27.03H93.1571ZM94.7219 32.25C94.7219 31.22 94.9519 30.3 95.4119 29.49C95.8819 28.67 96.5169 28.035 97.3169 27.585C98.1269 27.125 99.0319 26.895 100.032 26.895C101.202 26.895 102.227 27.195 103.107 27.795C103.987 28.395 104.602 29.225 104.952 30.285H102.537C102.297 29.785 101.957 29.41 101.517 29.16C101.087 28.91 100.587 28.785 100.017 28.785C99.4069 28.785 98.8619 28.93 98.3819 29.22C97.9119 29.5 97.5419 29.9 97.2719 30.42C97.0119 30.94 96.8819 31.55 96.8819 32.25C96.8819 32.94 97.0119 33.55 97.2719 34.08C97.5419 34.6 97.9119 35.005 98.3819 35.295C98.8619 35.575 99.4069 35.715 100.017 35.715C100.587 35.715 101.087 35.59 101.517 35.34C101.957 35.08 102.297 34.7 102.537 34.2H104.952C104.602 35.27 103.987 36.105 103.107 36.705C102.237 37.295 101.212 37.59 100.032 37.59C99.0319 37.59 98.1269 37.365 97.3169 36.915C96.5169 36.455 95.8819 35.82 95.4119 35.01C94.9519 34.2 94.7219 33.28 94.7219 32.25ZM108.846 28.725V31.35H112.371V33.015H108.846V35.79H112.821V37.5H106.746V27.015H112.821V28.725H108.846Z" fill="white"/>
</svg>
